<?xml version="1.0" encoding="utf-8"?>
<!-- Generator: Adobe Illustrator 19.0.0, SVG Export Plug-In . SVG Version: 6.00 Build 0)  -->
<svg version="1.1" id="Layer_1" xmlns="http://www.w3.org/2000/svg" xmlns:xlink="http://www.w3.org/1999/xlink" x="0px" y="0px"
	 viewBox="0 0 96 96" style="enable-background:new 0 0 96 96;" xml:space="preserve">
<style type="text/css">
	.st0{fill:#ED4C5C;}
	.st1{fill:#FFE62E;}
</style>
<g id="XMLID_2_">
	<circle id="XMLID_4_" class="st0" cx="48" cy="48" r="32.5"/>
	<polygon id="XMLID_5_" class="st1" points="37.2,44.1 45.8,50.2 42.6,40.2 51.3,33.9 40.5,33.9 37.2,24.2 33.9,33.9 23.1,33.9 
		31.8,40.2 28.5,50.2 	"/>
	<polygon id="XMLID_6_" class="st1" points="51.6,51.6 49.1,52.1 51.5,53.1 51.5,55.6 53.1,53.7 55.5,54.6 54.1,52.5 55.6,50.6 
		53.1,51.1 51.6,49.1 	"/>
	<polygon id="XMLID_7_" class="st1" points="55.3,44.2 53.4,45.8 55.9,45.6 57,48 57.4,45.5 59.9,45.3 57.8,44 58.3,41.5 56.5,43.1 
		54.3,41.8 	"/>
	<polygon id="XMLID_8_" class="st1" points="55.9,35.8 56.7,38.3 57.4,35.9 59.9,35.9 58,34.3 58.7,31.9 56.7,33.4 54.7,31.8 
		55.5,34.2 53.4,35.6 	"/>
	<polygon id="XMLID_9_" class="st1" points="51.6,27.1 51.6,29.6 53.1,27.5 55.6,28.1 54.1,26.1 55.5,24.1 53.1,25 51.5,23.1 
		51.5,25.6 49.1,26.5 	"/>
</g>
</svg>
