<?xml version="1.0" encoding="utf-8"?>
<!-- Generator: Adobe Illustrator 19.0.0, SVG Export Plug-In . SVG Version: 6.00 Build 0)  -->
<svg version="1.1" id="Layer_1" xmlns="http://www.w3.org/2000/svg" xmlns:xlink="http://www.w3.org/1999/xlink" x="0px" y="0px"
	 viewBox="0 0 96 96" style="enable-background:new 0 0 96 96;" xml:space="preserve">
<style type="text/css">
	.st0{fill:#ED4C5C;}
	.st1{fill:#2A5F9E;}
	.st2{fill:#FFFFFF;}
	.st3{fill:#428BC1;}
</style>
<g id="XMLID_2_">
	<path id="XMLID_4_" class="st0" d="M48,15.5V48H15.5C15.5,66,30,80.5,48,80.5S80.5,66,80.5,48S66,15.5,48,15.5z"/>
	<path id="XMLID_5_" class="st1" d="M48,15.5C30,15.5,15.5,30,15.5,48H48V15.5z"/>
	<polyline id="XMLID_6_" class="st2" points="39.3,35.3 44.8,33.9 39.3,32.5 43.3,28.5 37.9,29.9 39.3,24.5 35.3,28.5 33.9,23.1 
		32.5,28.5 28.5,24.5 29.9,29.9 24.5,28.5 28.5,32.5 23.1,33.9 28.5,35.3 24.5,39.3 29.9,37.9 28.5,43.3 32.5,39.3 33.9,44.8 
		35.3,39.3 39.3,43.3 37.9,37.9 43.3,39.3 39.3,35.3 	"/>
	<circle id="XMLID_7_" class="st3" cx="33.9" cy="33.9" r="6.2"/>
	<circle id="XMLID_8_" class="st2" cx="33.9" cy="33.9" r="5.4"/>
</g>
</svg>
