<svg height="368pt" viewBox="0 0 368.00655 368" width="368pt" xmlns="http://www.w3.org/2000/svg"><path d="m360.003906 352.003906h-24v-208h24c2.773438 0 5.34375-1.441406 6.808594-3.792968 1.453125-2.359376 1.589844-5.304688.351562-7.785157l-32-64c-1.359374-2.710937-4.128906-4.421875-7.160156-4.421875h-24v-56c0-4.417968-3.585937-7.99999975-8-7.99999975h-224c-4.417968 0-8 3.58203175-8 7.99999975v56h-24c-3.03125 0-5.800781 1.710938-7.160156 4.421875l-32 64c-1.242188 2.480469-1.105469 5.425781.351562 7.785157 1.464844 2.351562 4.03125 3.792968 6.808594 3.792968h24v208h-24c-4.417968 0-7.99999975 3.582032-7.99999975 8 0 4.414063 3.58203175 8 7.99999975 8h352c4.414063 0 8-3.585937 8-8 0-4.417968-3.585937-8-8-8zm-40-64h-80v-80h80zm27.054688-160h-46.109375l-24-48h46.109375zm-262.109375 0 24-48h46.109375l-24 48zm88-48h22.109375l24 48h-70.109375zm64 48-24-48h46.109375l24 48zm-156.945313-112h208v48h-208zm-35.054687 64h46.109375l-24 48h-46.109375zm3.054687 64h272v48h-88c-4.417968 0-8 3.582032-8 8v96c0 4.414063 3.582032 8 8 8h88v48h-128v-152c0-4.417968-3.585937-8-8-8h-96c-4.417968 0-8 3.582032-8 8v152h-32zm128 208h-80v-144h80zm0 0"/></svg>