<svg xmlns="http://www.w3.org/2000/svg" width="177" height="90.473" viewBox="0 0 177 90.473"><defs><style>.a{fill:#fff;fill-rule:evenodd;}.b{fill:none;stroke:#fff;stroke-linecap:round;stroke-width:3px;}</style></defs><g transform="translate(-101 -141.389)"><path class="a" d="M91.751,150.567l44.917-44.917a9.9,9.9,0,1,1,14,14L98.8,171.521l-.051.052a9.9,9.9,0,0,1-14,0l-1.867-1.867h0L64.34,151.164a9.9,9.9,0,0,1,14-14Z" transform="translate(82.428 57.389)"/><g transform="translate(6 8)"><line class="b" y2="23" transform="translate(260.5 160.5)"/><line class="b" x1="21" transform="translate(249.5 172.5)"/></g><g transform="translate(-147)"><line class="b" y2="19.027" transform="translate(258.6 160.5)"/><line class="b" x1="17.372" transform="translate(249.5 170.427)"/></g><g transform="translate(-89 -17.611)"><line class="b" y2="11.611" transform="translate(255.053 160.5)"/><line class="b" x1="10.601" transform="translate(249.5 166.558)"/></g><g transform="translate(-19 54.389)"><line class="b" y2="11.611" transform="translate(255.053 160.5)"/><line class="b" x1="10.601" transform="translate(249.5 166.558)"/></g></g></svg>